<svg xmlns="http://www.w3.org/2000/svg" xmlns:xlink="http://www.w3.org/1999/xlink" fill="none" version="1.1" width="22" height="24" viewBox="0 0 22 24"><path d="M22,8.21053L22,12C22,15.1389,17.0744,17.6842,11,17.6842C4.92556,17.6842,0,15.1389,0,12L0,8.21053C0,11.3495,4.92556,13.8947,11,13.8947C17.0744,13.8947,22,11.3495,22,8.21053ZM0,14.5263C0,17.6653,4.92556,20.2105,11,20.2105C17.0744,20.2105,22,17.6653,22,14.5263L22,18.3158C22,21.4547,17.0744,24,11,24C4.92556,24,0,21.4547,0,18.3158L0,14.5263ZM11,11.3684C4.92556,11.3684,0,8.82316,0,5.68421C0,2.54526,4.92556,0,11,0C17.0744,0,22,2.54526,22,5.68421C22,8.82316,17.0744,11.3684,11,11.3684Z" fill="#FFFFFF" fill-opacity="1"/></svg>