<svg xmlns="http://www.w3.org/2000/svg" xmlns:xlink="http://www.w3.org/1999/xlink" fill="none" version="1.1" width="24.000001907348633" height="23.600000381469727" viewBox="0 0 24.000001907348633 23.600000381469727"><g style="mix-blend-mode:passthrough"><path d="M12,11.8C15.315,11.8,18,9.15975,18,5.9C18,2.64025,15.315,0,12,0C8.685,0,6,2.64025,6,5.9C6,9.15975,8.685,11.8,12,11.8C12,11.8,12,11.8,12,11.8ZM12,14.75C7.995,14.75,0,16.7265,0,20.65C0,20.65,0,22.125,0,22.125C0,22.9362,0.675,23.6,1.5,23.6C1.5,23.6,22.5,23.6,22.5,23.6C23.325,23.6,24,22.9362,24,22.125C24,22.125,24,20.65,24,20.65C24,16.7265,16.005,14.75,12,14.75C12,14.75,12,14.75,12,14.75Z" fill="#FFFFFF" fill-opacity="1"/></g></svg>