<svg xmlns="http://www.w3.org/2000/svg" xmlns:xlink="http://www.w3.org/1999/xlink" fill="none" version="1.1" width="24" height="22.999755859375" viewBox="0 0 24 22.999755859375"><g style="mix-blend-mode:passthrough"><g><g style="mix-blend-mode:passthrough"><path d="M0,2C0,0.895431,0.895431,0,2,0L22,0C23.1046,0,24,0.895431,24,2L24,16C24,17.1046,23.1046,18,22,18L13.7321,18Q13.6665,17.8865,13.5867,17.7825Q13.5069,17.6785,13.4142,17.5858Q13.3215,17.4931,13.2175,17.4133Q13.1135,17.3335,13,17.2679Q12.8865,17.2024,12.7654,17.1522Q12.6443,17.1021,12.5176,17.0681Q12.391,17.0342,12.2611,17.0171Q12.1311,17,12,17Q11.8689,17,11.7389,17.0171Q11.609,17.0342,11.4824,17.0681Q11.3557,17.1021,11.2346,17.1522Q11.1135,17.2024,11,17.2679Q10.8865,17.3335,10.7825,17.4133Q10.6785,17.4931,10.5858,17.5858Q10.4931,17.6785,10.4133,17.7825Q10.3335,17.8865,10.2679,18L2,18C0.895431,18,0,17.1046,0,16L0,2ZM2,2L2,16L22,16L22,2L2,2Z" fill-rule="evenodd" fill="#FFFFFF" fill-opacity="1"/></g><g style="mix-blend-mode:passthrough"><path d="M10.3998,19.999755859375L0,19.999755859375C0,21.656605859375,1.34315,22.999755859375,3,22.999755859375L21,22.999755859375C22.6569,22.999755859375,24,21.656605859375,24,19.999755859375L13.6002,19.999755859375Q13.4605,20.186112859375,13.2817,20.335375859375Q13.1029,20.484639859375,12.8946,20.588820859375Q12.6863,20.693002859375,12.4596,20.746525859375Q12.2329,20.800048859375,12,20.800048859375Q11.7671,20.800048859375,11.5404,20.746525859375Q11.3137,20.693002859375,11.1054,20.588820859375Q10.8971,20.484639859375,10.7183,20.335375859375Q10.5395,20.186112859375,10.3998,19.999755859375Z" fill-rule="evenodd" fill="#FFFFFF" fill-opacity="1"/></g><g style="mix-blend-mode:passthrough"><rect x="4" y="4" width="16" height="10" rx="0" fill="#FFFFFF" fill-opacity="1"/></g></g></g></svg>