<svg xmlns="http://www.w3.org/2000/svg" xmlns:xlink="http://www.w3.org/1999/xlink" fill="none" version="1.1" width="22" height="24" viewBox="0 0 22 24"><path d="M12.4355,0.367464L20.7042,4.88174C21.5012,5.31695,21.9994,6.16746,22,7.09374L22,16.9236C22,17.8535,21.4995,18.7067,20.6998,19.1401L12.43,23.6352C11.5357,24.1216,10.4643,24.1216,9.57,23.6352L1.3002,19.1424C0.500298,18.7079,0,17.855,0,16.9258L0,7.096C0,6.16831,0.4983,5.31624,1.2958,4.88061L9.5645,0.367464C10.4619,-0.122488,11.5381,-0.122488,12.4355,0.367464ZM15.6156,8.14783L11.0154,10.8699L11,10.8699L10.9835,10.8699L6.3844,8.14782C5.85785,7.83112,5.18065,8.01481,4.87546,8.55713C4.57027,9.09944,4.7538,9.793,5.2844,10.1025L9.9,12.837L9.9,17.6414C9.90007,18.2135,10.3175,18.6951,10.8713,18.762L11,18.7699C11.6075,18.7699,12.1,18.2646,12.1,17.6414L12.1,12.8359L16.7156,10.1025C17.2372,9.78876,17.4143,9.10186,17.1119,8.5646C16.8096,8.02734,16.1412,7.84119,15.6156,8.14783Z" fill="#FFFFFF" fill-opacity="1"/></svg>