<svg xmlns="http://www.w3.org/2000/svg" xmlns:xlink="http://www.w3.org/1999/xlink" fill="none" version="1.1" width="24" height="20" viewBox="0 0 24 20"><g style="mix-blend-mode:passthrough"><path d="M0,2C0,0.895431,0.895431,0,2,0L22,0C23.1046,0,24,0.895431,24,2L24,18C24,19.1046,23.1046,20,22,20L2,20C0.895431,20,0,19.1046,0,18L0,2ZM19.0653,6.11202L21.0575,2.00643L16.5005,2.2486L17.2134,3.32253L11.9719,6.81714L6.91828,3.78475L1.3753,8.21913L2.6247,9.78087L7.08172,6.21525L12.0281,9.18335L18.3196,4.98878L19.0653,6.11202ZM19,8L17,8L17,17L19,17L19,8ZM7,10L5,10L5,17L7,17L7,10ZM13,11L13,17L11,17L11,11L13,11Z" fill-rule="evenodd" fill="#FFFFFF" fill-opacity="1"/></g></svg>